<svg class="lds-gear" width="100%" height="100%" xmlns="http://www.w3.org/2000/svg" xmlns:xlink="http://www.w3.org/1999/xlink" viewBox="0 0 100 100" preserveAspectRatio="xMidYMid"><g transform="translate(50 50)">
<g transform="rotate(354.902)">
<animateTransform attributeName="transform" type="rotate" values="0;360" keyTimes="0;1" dur="5.9s" repeatCount="indefinite"></animateTransform><path d="M37.25251669350676 -7.5 L47.25251669350676 -7.5 L47.25251669350676 7.5 L37.25251669350676 7.5 A38 38 0 0 1 36.011625811480734 12.13106781837009 L36.011625811480734 12.13106781837009 L44.67187984932512 17.131067818370088 L37.17187984932512 30.121448875136668 L28.511625811480737 25.121448875136668 A38 38 0 0 1 25.12144887513667 28.511625811480734 L25.12144887513667 28.511625811480734 L30.12144887513667 37.17187984932512 L17.13106781837009 44.67187984932512 L12.131067818370092 36.011625811480734 A38 38 0 0 1 7.499999999999998 37.25251669350676 L7.499999999999998 37.25251669350676 L7.499999999999999 47.25251669350676 L-7.499999999999993 47.25251669350676 L-7.499999999999994 37.25251669350676 A38 38 0 0 1 -12.131067818370088 36.01162581148074 L-12.131067818370088 36.01162581148074 L-17.131067818370084 44.67187984932513 L-30.121448875136657 37.17187984932514 L-25.12144887513666 28.511625811480744 A38 38 0 0 1 -28.511625811480727 25.121448875136682 L-28.511625811480727 25.121448875136682 L-37.17187984932511 30.121448875136686 L-44.67187984932511 17.131067818370113 L-36.01162581148073 12.13106781837011 A38 38 0 0 1 -37.25251669350676 7.5 L-37.25251669350676 7.5 L-47.25251669350676 7.500000000000001 L-47.25251669350676 -7.499999999999991 L-37.25251669350676 -7.499999999999992 A38 38 0 0 1 -36.01162581148074 -12.131067818370086 L-36.01162581148074 -12.131067818370086 L-44.67187984932513 -17.131067818370084 L-37.17187984932514 -30.121448875136657 L-28.511625811480744 -25.12144887513666 A38 38 0 0 1 -25.121448875136682 -28.511625811480727 L-25.121448875136682 -28.511625811480727 L-30.121448875136686 -37.17187984932511 L-17.1310678183701 -44.67187984932512 L-12.131067818370097 -36.011625811480734 A38 38 0 0 1 -7.5000000000000195 -37.252516693506756 L-7.5000000000000195 -37.252516693506756 L-7.500000000000021 -47.252516693506756 L7.5000000000000036 -47.25251669350676 L7.500000000000005 -37.25251669350676 A38 38 0 0 1 12.131067818370049 -36.01162581148075 L12.131067818370049 -36.01162581148075 L17.131067818370042 -44.67187984932514 L30.12144887513665 -37.17187984932514 L25.121448875136657 -28.511625811480744 A38 38 0 0 1 28.511625811480716 -25.121448875136693 L28.511625811480716 -25.121448875136693 L37.1718798493251 -30.121448875136696 L44.671879849325116 -17.131067818370102 L36.011625811480734 -12.131067818370099 A38 38 0 0 1 37.252516693506756 -7.500000000000021 M0 -20A20 20 0 1 0 0 20 A20 20 0 1 0 0 -20" fill="#fff"></path></g></g></svg>